<svg xmlns="http://www.w3.org/2000/svg" viewBox="0 0 1280 800" width="1280" height="800" role="img" aria-label="IdentityAttackGraph dashboard — Overview">
  <defs>
    <radialGradient id="bg" cx="80%" cy="-10%" r="90%">
      <stop offset="0%" stop-color="#131a30"/><stop offset="55%" stop-color="#080b14"/>
    </radialGradient>
    <linearGradient id="side" x1="0" y1="0" x2="0" y2="1">
      <stop offset="0%" stop-color="#0c1120"/><stop offset="100%" stop-color="#0a0e1a"/>
    </linearGradient>
    <linearGradient id="brand" x1="0" y1="0" x2="1" y2="1">
      <stop offset="0%" stop-color="#6d7cff"/><stop offset="100%" stop-color="#8b5cf6"/>
    </linearGradient>
    <linearGradient id="bCrit" x1="0" y1="0" x2="1" y2="0"><stop offset="0%" stop-color="#f43f5e"/><stop offset="100%" stop-color="#fb7185"/></linearGradient>
    <linearGradient id="bHigh" x1="0" y1="0" x2="1" y2="0"><stop offset="0%" stop-color="#fb923c"/><stop offset="100%" stop-color="#fdba74"/></linearGradient>
    <linearGradient id="bMed" x1="0" y1="0" x2="1" y2="0"><stop offset="0%" stop-color="#fbbf24"/><stop offset="100%" stop-color="#fcd34d"/></linearGradient>
  </defs>

  <g font-family="ui-sans-serif, -apple-system, 'Segoe UI', Roboto, Arial, sans-serif">
    <rect width="1280" height="800" fill="#080b14"/>
    <rect x="256" y="0" width="1024" height="800" fill="url(#bg)"/>

    <!-- ================= SIDEBAR ================= -->
    <rect x="0" y="0" width="256" height="800" fill="url(#side)"/>
    <line x1="256" y1="0" x2="256" y2="800" stroke="#1a2134"/>
    <!-- brand -->
    <rect x="20" y="22" width="38" height="38" rx="11" fill="url(#brand)"/>
    <text x="39" y="47" text-anchor="middle" font-size="19" fill="#ffffff">◆</text>
    <text x="70" y="38" font-size="14" font-weight="700" fill="#e8ebf3">IdentityAttackGraph</text>
    <text x="70" y="54" font-size="11" fill="#6b7591">NHI security console</text>

    <!-- nav -->
    <g font-size="13.5">
      <rect x="8" y="92" width="240" height="40" rx="8" fill="#161d33"/>
      <rect x="8" y="101" width="3" height="22" rx="1.5" fill="#6d7cff"/>
      <text x="30" y="117" fill="#c3caff">▦</text><text x="52" y="117" fill="#c3caff" font-weight="600">Overview</text>

      <text x="30" y="161" fill="#9aa3bd">▤</text><text x="52" y="161" fill="#9aa3bd">Inventory</text>
      <text x="30" y="201" fill="#9aa3bd">🕸</text><text x="52" y="201" fill="#9aa3bd">Attack graph</text>
      <text x="30" y="241" fill="#9aa3bd">◈</text><text x="52" y="241" fill="#9aa3bd">Triage</text>
      <rect x="196" y="230" width="34" height="18" rx="9" fill="#f43f5e"/>
      <text x="213" y="243" text-anchor="middle" font-size="11" font-weight="700" fill="#ffffff">42</text>
      <text x="30" y="281" fill="#9aa3bd">✓</text><text x="52" y="281" fill="#9aa3bd">Remediation</text>
      <text x="30" y="321" fill="#9aa3bd">⚙</text><text x="52" y="321" fill="#9aa3bd">Settings</text>
    </g>

    <!-- sidebar footer -->
    <line x1="18" y1="742" x2="238" y2="742" stroke="#1a2134"/>
    <circle cx="26" cy="766" r="4" fill="#34d399"/>
    <text x="40" y="770" font-size="12" fill="#9aa3bd">Connected · 3 accounts</text>
    <text x="26" y="788" font-size="11" fill="#6b7591">last collection 2m ago</text>

    <!-- ================= TOPBAR ================= -->
    <line x1="256" y1="72" x2="1280" y2="72" stroke="#1a2134"/>
    <text x="286" y="34" font-size="19" font-weight="700" fill="#e8ebf3">Overview</text>
    <text x="286" y="54" font-size="13" fill="#9aa3bd">AWS · GCP · Kubernetes  ·  12 non-human identities  ·  5 crown jewels</text>
    <rect x="946" y="24" width="240" height="34" rx="9" fill="#0f1422" stroke="#20283d"/>
    <text x="966" y="46" font-size="13" fill="#6b7591">⌕  Search identities…</text>
    <rect x="1198" y="24" width="52" height="34" rx="9" fill="#141b2c" stroke="#20283d"/>
    <text x="1224" y="46" text-anchor="middle" font-size="14" fill="#9aa3bd">⟳</text>

    <!-- ================= STAT CARDS ================= -->
    <g>
      <!-- card template repeated: x, accent, value, label -->
      <g>
        <rect x="286" y="100" width="149" height="76" rx="12" fill="#0f1422" stroke="#1a2134"/><rect x="286" y="100" width="3" height="76" fill="#6d7cff"/>
        <text x="304" y="140" font-size="26" font-weight="750" fill="#e8ebf3">12</text><text x="304" y="160" font-size="11.5" fill="#9aa3bd">Identities</text>
      </g>
      <g>
        <rect x="449" y="100" width="149" height="76" rx="12" fill="#0f1422" stroke="#1a2134"/><rect x="449" y="100" width="3" height="76" fill="#2dd4bf"/>
        <text x="467" y="140" font-size="26" font-weight="750" fill="#e8ebf3">5</text><text x="467" y="160" font-size="11.5" fill="#9aa3bd">Crown jewels</text>
      </g>
      <g>
        <rect x="612" y="100" width="149" height="76" rx="12" fill="#0f1422" stroke="#1a2134"/><rect x="612" y="100" width="3" height="76" fill="#f43f5e"/>
        <text x="630" y="140" font-size="26" font-weight="750" fill="#ff6b81">4</text><text x="630" y="160" font-size="11.5" fill="#9aa3bd">Critical</text>
      </g>
      <g>
        <rect x="775" y="100" width="149" height="76" rx="12" fill="#0f1422" stroke="#1a2134"/><rect x="775" y="100" width="3" height="76" fill="#fb923c"/>
        <text x="793" y="140" font-size="26" font-weight="750" fill="#ffae66">22</text><text x="793" y="160" font-size="11.5" fill="#9aa3bd">High</text>
      </g>
      <g>
        <rect x="938" y="100" width="149" height="76" rx="12" fill="#0f1422" stroke="#1a2134"/><rect x="938" y="100" width="3" height="76" fill="#fbbf24"/>
        <text x="956" y="140" font-size="26" font-weight="750" fill="#e8ebf3">42</text><text x="956" y="160" font-size="11.5" fill="#9aa3bd">Open findings</text>
      </g>
      <g>
        <rect x="1101" y="100" width="149" height="76" rx="12" fill="#0f1422" stroke="#1a2134"/><rect x="1101" y="100" width="3" height="76" fill="#34d399"/>
        <text x="1119" y="140" font-size="26" font-weight="750" fill="#e8ebf3">17</text><text x="1119" y="160" font-size="11.5" fill="#9aa3bd">Detectors</text>
      </g>
    </g>

    <!-- ================= SEVERITY DISTRIBUTION ================= -->
    <rect x="286" y="200" width="475" height="270" rx="12" fill="#0f1422" stroke="#1a2134"/>
    <text x="306" y="230" font-size="14" font-weight="650" fill="#e8ebf3">Findings by severity</text>
    <text x="741" y="230" text-anchor="end" font-size="11" fill="#6b7591">42 open</text>
    <g font-size="12">
      <!-- rows: label(70), track x=376..711 (w335), count -->
      <text x="306" y="272" font-weight="600" fill="#e8ebf3">Critical</text>
      <rect x="376" y="264" width="335" height="8" rx="4" fill="#1a2236"/><rect x="376" y="264" width="32" height="8" rx="4" fill="url(#bCrit)"/>
      <text x="741" y="272" text-anchor="end" fill="#9aa3bd">4</text>

      <text x="306" y="312" font-weight="600" fill="#e8ebf3">High</text>
      <rect x="376" y="304" width="335" height="8" rx="4" fill="#1a2236"/><rect x="376" y="304" width="176" height="8" rx="4" fill="url(#bHigh)"/>
      <text x="741" y="312" text-anchor="end" fill="#9aa3bd">22</text>

      <text x="306" y="352" font-weight="600" fill="#e8ebf3">Medium</text>
      <rect x="376" y="344" width="335" height="8" rx="4" fill="#1a2236"/><rect x="376" y="344" width="128" height="8" rx="4" fill="url(#bMed)"/>
      <text x="741" y="352" text-anchor="end" fill="#9aa3bd">16</text>

      <text x="306" y="392" font-weight="600" fill="#e8ebf3">Low</text>
      <rect x="376" y="384" width="335" height="8" rx="4" fill="#1a2236"/>
      <text x="741" y="392" text-anchor="end" fill="#9aa3bd">0</text>
    </g>
    <line x1="306" y1="420" x2="741" y2="420" stroke="#1a2134"/>
    <text x="306" y="446" font-size="11.5" fill="#6b7591">Top category:  exposure · privilege · trust — each finding carries evidence + an attack narrative</text>

    <!-- ================= TRIAGE QUEUE ================= -->
    <rect x="775" y="200" width="475" height="270" rx="12" fill="#0f1422" stroke="#1a2134"/>
    <text x="795" y="230" font-size="14" font-weight="650" fill="#e8ebf3">Triage queue</text>
    <text x="1230" y="230" text-anchor="end" font-size="11" fill="#6b7591">by urgency</text>
    <g>
      <!-- row: glyph, name, sub, risk chip (dot+num+bar) right-aligned -->
      <!-- 1 -->
      <text x="797" y="272" font-size="15">🔑</text>
      <text x="822" y="268" font-size="13" font-weight="550" fill="#e8ebf3">svc-billing-export</text>
      <text x="822" y="284" font-size="11" fill="#6b7591">aws_iam_user · aws:123456789012</text>
      <circle cx="1150" cy="272" r="4" fill="#fb923c"/><text x="1182" y="277" text-anchor="end" font-size="14" font-weight="700" fill="#e8ebf3">67</text>
      <rect x="1188" y="269" width="54" height="6" rx="3" fill="#1a2236"/><rect x="1188" y="269" width="36" height="6" rx="3" fill="url(#bHigh)"/>

      <!-- 2 -->
      <text x="797" y="312" font-size="15">☁</text>
      <text x="822" y="308" font-size="13" font-weight="550" fill="#e8ebf3">data-processor@project…</text>
      <text x="822" y="324" font-size="11" fill="#6b7591">gcp_service_account · gcp:my-gcp-project</text>
      <circle cx="1150" cy="312" r="4" fill="#fb923c"/><text x="1182" y="317" text-anchor="end" font-size="14" font-weight="700" fill="#e8ebf3">46</text>
      <rect x="1188" y="309" width="54" height="6" rx="3" fill="#1a2236"/><rect x="1188" y="309" width="25" height="6" rx="3" fill="url(#bHigh)"/>

      <!-- 3 -->
      <text x="797" y="352" font-size="15">⎈</text>
      <text x="822" y="348" font-size="13" font-weight="550" fill="#e8ebf3">prod/deployer</text>
      <text x="822" y="364" font-size="11" fill="#6b7591">k8s_service_account · k8s:demo</text>
      <circle cx="1150" cy="352" r="4" fill="#fbbf24"/><text x="1182" y="357" text-anchor="end" font-size="14" font-weight="700" fill="#e8ebf3">40</text>
      <rect x="1188" y="349" width="54" height="6" rx="3" fill="#1a2236"/><rect x="1188" y="349" width="22" height="6" rx="3" fill="url(#bMed)"/>

      <!-- 4 (AI agent) -->
      <text x="797" y="392" font-size="15">🤖</text>
      <text x="822" y="388" font-size="13" font-weight="550" fill="#e8ebf3">prod-copilot-agent</text>
      <rect x="963" y="378" width="24" height="13" rx="4" fill="#2dd4bf"/><text x="975" y="388" text-anchor="middle" font-size="9" font-weight="700" fill="#04211c">AI</text>
      <text x="822" y="404" font-size="11" fill="#6b7591">ai_agent · aws:123456789012</text>
      <circle cx="1150" cy="392" r="4" fill="#fbbf24"/><text x="1182" y="397" text-anchor="end" font-size="14" font-weight="700" fill="#e8ebf3">39</text>
      <rect x="1188" y="389" width="54" height="6" rx="3" fill="#1a2236"/><rect x="1188" y="389" width="21" height="6" rx="3" fill="url(#bMed)"/>

      <!-- 5 -->
      <text x="797" y="432" font-size="15">🔑</text>
      <text x="822" y="428" font-size="13" font-weight="550" fill="#e8ebf3">svc-orphaned</text>
      <text x="822" y="444" font-size="11" fill="#6b7591">aws_iam_user · aws:987654321098</text>
      <circle cx="1150" cy="432" r="4" fill="#fbbf24"/><text x="1182" y="437" text-anchor="end" font-size="14" font-weight="700" fill="#e8ebf3">31</text>
      <rect x="1188" y="429" width="54" height="6" rx="3" fill="#1a2236"/><rect x="1188" y="429" width="17" height="6" rx="3" fill="url(#bMed)"/>
    </g>
  </g>
</svg>
